<svg xmlns="http://www.w3.org/2000/svg" width="448" height="448" viewBox="0 0 448 448">
  <path id="border-none-solid" d="M432,224H400a16,16,0,0,0-16,16v32a16,16,0,0,0,16,16h32a16,16,0,0,0,16-16V240A16,16,0,0,0,432,224ZM240,416H208a16,16,0,0,0-16,16v32a16,16,0,0,0,16,16h32a16,16,0,0,0,16-16V432A16,16,0,0,0,240,416Zm96,0H304a16,16,0,0,0-16,16v32a16,16,0,0,0,16,16h32a16,16,0,0,0,16-16V432A16,16,0,0,0,336,416Zm96,0H400a16,16,0,0,0-16,16v32a16,16,0,0,0,16,16h32a16,16,0,0,0,16-16V432A16,16,0,0,0,432,416Zm0-96H400a16,16,0,0,0-16,16v32a16,16,0,0,0,16,16h32a16,16,0,0,0,16-16V336A16,16,0,0,0,432,320Zm0-192H400a16,16,0,0,0-16,16v32a16,16,0,0,0,16,16h32a16,16,0,0,0,16-16V144A16,16,0,0,0,432,128ZM144,416H112a16,16,0,0,0-16,16v32a16,16,0,0,0,16,16h32a16,16,0,0,0,16-16V432A16,16,0,0,0,144,416ZM240,32H208a16,16,0,0,0-16,16V80a16,16,0,0,0,16,16h32a16,16,0,0,0,16-16V48A16,16,0,0,0,240,32Zm96,0H304a16,16,0,0,0-16,16V80a16,16,0,0,0,16,16h32a16,16,0,0,0,16-16V48A16,16,0,0,0,336,32Zm96,0H400a16,16,0,0,0-16,16V80a16,16,0,0,0,16,16h32a16,16,0,0,0,16-16V48A16,16,0,0,0,432,32ZM48,224H16A16,16,0,0,0,0,240v32a16,16,0,0,0,16,16H48a16,16,0,0,0,16-16V240A16,16,0,0,0,48,224Zm0,192H16A16,16,0,0,0,0,432v32a16,16,0,0,0,16,16H48a16,16,0,0,0,16-16V432A16,16,0,0,0,48,416Zm0-96H16A16,16,0,0,0,0,336v32a16,16,0,0,0,16,16H48a16,16,0,0,0,16-16V336A16,16,0,0,0,48,320Zm0-192H16A16,16,0,0,0,0,144v32a16,16,0,0,0,16,16H48a16,16,0,0,0,16-16V144A16,16,0,0,0,48,128Zm0-96H16A16,16,0,0,0,0,48V80A16,16,0,0,0,16,96H48A16,16,0,0,0,64,80V48A16,16,0,0,0,48,32Zm96,0H112A16,16,0,0,0,96,48V80a16,16,0,0,0,16,16h32a16,16,0,0,0,16-16V48A16,16,0,0,0,144,32Z" transform="translate(0 -32)"/>
</svg>
